# xmcd CD database file
#
# Track frame offsets:
#	150
#	27870
#	46333
#	87989
#	112108
#	144496
#	178110
#
# Disc length: 2725 seconds
#
# Revision: 2
# Processed by: cddbd v1.5.2PL0 Copyright (c) Steve Scherf et al.
# Submitted via: CDex 1.70beta2
#
DISCID=5b0aa307
DTITLE=Wilton Bogey Gaynair - Blue Bogey
DYEAR=1959
DGENRE=Jazz
TTITLE0=Wilton's Mood
TTITLE1=Deborah
TTITLE2=Joy Spring
TTITLE3=Rhythm
TTITLE4=Blues For Tony
TTITLE5=The Way You Look Tonight
TTITLE6=Gone With The Wind
EXTD=YEAR: 1959
EXTT0=
EXTT1=
EXTT2=
EXTT3=
EXTT4=
EXTT5=
EXTT6=
PLAYORDER=
